<svg width="400" height="400" viewBox="0 0 400 400" fill="none" xmlns="http://www.w3.org/2000/svg">
<g clip-path="url(#clip0_1922_5574)">
<path d="M275.165 283.565H121.277C108.342 283.565 97.8184 273.041 97.8184 260.106V106.217C97.8184 93.2822 108.342 82.7588 121.277 82.7588H275.165C288.101 82.7588 298.624 93.2822 298.624 106.217V260.106C298.624 273.041 288.101 283.565 275.165 283.565ZM121.277 86.5122C110.394 86.5122 101.572 95.3345 101.572 106.217V260.106C101.572 270.989 110.394 279.811 121.277 279.811H229.072C265.412 279.811 294.871 250.352 294.871 214.012V106.217C294.871 95.3345 286.048 86.5122 275.165 86.5122L121.277 86.5122Z" fill="#BBBBBB"/>
<path d="M275.165 283.565H121.277C108.342 283.565 97.8184 273.041 97.8184 260.106V106.217C97.8184 93.2822 108.342 82.7588 121.277 82.7588H275.165C288.101 82.7588 298.624 93.2822 298.624 106.217V260.106C298.624 273.041 288.101 283.565 275.165 283.565ZM121.277 86.5122C110.394 86.5122 101.572 95.3345 101.572 106.217V260.106C101.572 270.989 110.394 279.811 121.277 279.811H229.072C265.412 279.811 294.871 250.352 294.871 214.012V106.217C294.871 95.3345 286.048 86.5122 275.165 86.5122L121.277 86.5122Z" fill="#2E75AD" fill-opacity="0.03"/>
<path d="M137.868 102.516C130.584 102.516 124.659 108.441 124.659 115.724V136.398C124.659 143.682 130.584 149.607 137.868 149.607H158.542C165.825 149.607 171.75 143.682 171.75 136.398V115.724C171.75 108.441 165.825 102.516 158.542 102.516H137.868Z" fill="#BBBBBB"/>
<path d="M137.868 102.516C130.584 102.516 124.659 108.441 124.659 115.724V136.398C124.659 143.682 130.584 149.607 137.868 149.607H158.542C165.825 149.607 171.75 143.682 171.75 136.398V115.724C171.75 108.441 165.825 102.516 158.542 102.516H137.868Z" fill="#2E75AD" fill-opacity="0.03"/>
<path d="M137.868 160.716C130.584 160.716 124.659 166.641 124.659 173.924V194.599C124.659 201.882 130.584 207.807 137.868 207.807H158.542C165.825 207.807 171.75 201.882 171.75 194.599V173.924C171.75 166.641 165.825 160.716 158.542 160.716H137.868Z" fill="#BBBBBB"/>
<path d="M137.868 160.716C130.584 160.716 124.659 166.641 124.659 173.924V194.599C124.659 201.882 130.584 207.807 137.868 207.807H158.542C165.825 207.807 171.75 201.882 171.75 194.599V173.924C171.75 166.641 165.825 160.716 158.542 160.716H137.868Z" fill="#2E75AD" fill-opacity="0.03"/>
<path d="M137.868 218.917C130.584 218.917 124.659 224.842 124.659 232.126V252.8C124.659 260.083 130.584 266.008 137.868 266.008H158.542C165.825 266.008 171.75 260.083 171.75 252.8V232.126C171.75 224.842 165.825 218.917 158.542 218.917H137.868Z" fill="#BBBBBB"/>
<path d="M137.868 218.917C130.584 218.917 124.659 224.842 124.659 232.126V252.8C124.659 260.083 130.584 266.008 137.868 266.008H158.542C165.825 266.008 171.75 260.083 171.75 252.8V232.126C171.75 224.842 165.825 218.917 158.542 218.917H137.868Z" fill="#2E75AD" fill-opacity="0.03"/>
<path d="M151.578 52.0752C142.4 52.0752 134.935 59.541 134.935 68.7183V94.7684C134.935 103.946 142.4 111.412 151.578 111.412H177.628C186.805 111.412 194.271 103.946 194.271 94.7684V68.7183C194.271 59.541 186.805 52.0752 177.628 52.0752H151.578Z" fill="#FF902E"/>
<path d="M237.341 124.874C228.164 124.874 220.698 132.34 220.698 141.517V167.567C220.698 176.745 228.164 184.21 237.341 184.21H263.391C272.569 184.21 280.035 176.745 280.035 167.567V141.517C280.035 132.34 272.569 124.874 263.391 124.874H237.341Z" fill="#FF902E"/>
<path d="M200.056 387.08L194.764 387.035L192.421 366.146L200.232 366.212L200.056 387.08Z" fill="#6B3C13"/>
<path d="M183.105 395.494C183.093 396.797 184.143 397.869 185.45 397.881L195.972 397.969L197.814 394.235L198.491 397.988L202.461 398.024L201.459 384.639L200.077 384.547L194.443 384.159L192.626 384.037L192.594 387.824L184.141 393.557C183.498 393.994 183.111 394.718 183.105 395.494Z" fill="#262626"/>
<path d="M183.105 395.494C183.093 396.797 184.143 397.869 185.45 397.881L195.972 397.969L197.814 394.235L198.491 397.988L202.461 398.024L201.459 384.639L200.077 384.547L194.443 384.159L192.626 384.037L192.594 387.824L184.141 393.557C183.498 393.994 183.111 394.718 183.105 395.494Z" fill="#2E75AD" fill-opacity="0.09"/>
<path d="M226.98 387.08L221.688 387.035L219.346 366.146L227.156 366.212L226.98 387.08Z" fill="#6B3C13"/>
<path d="M210.029 395.494C210.018 396.797 211.068 397.869 212.375 397.881L222.897 397.969L224.739 394.235L225.416 397.988L229.386 398.024L228.383 384.639L227.002 384.547L221.368 384.159L219.55 384.037L219.519 387.824L211.066 393.557C210.423 393.994 210.036 394.718 210.029 395.494Z" fill="#262626"/>
<path d="M210.029 395.494C210.018 396.797 211.068 397.869 212.375 397.881L222.897 397.969L224.739 394.235L225.416 397.988L229.386 398.024L228.383 384.639L227.002 384.547L221.368 384.159L219.55 384.037L219.519 387.824L211.066 393.557C210.423 393.994 210.036 394.718 210.029 395.494Z" fill="#2E75AD" fill-opacity="0.09"/>
<path d="M179.289 218.197L200.74 218.875L221.063 223.391C221.063 223.391 219.03 225.875 225.805 232.649C225.805 232.649 234.837 248.455 228.514 263.81L225.805 325.229C225.805 325.229 233.705 368.526 227.669 382.305L219.691 382.804L206.191 325.729L199.611 264.262L196.45 324.778C196.45 324.778 208.544 366.315 200.907 382.804L192.266 382.305L177.482 324.778C177.482 324.778 171.16 258.391 172.063 245.746C172.966 233.1 179.289 218.197 179.289 218.197Z" fill="#262626"/>
<path d="M179.289 218.197L200.74 218.875L221.063 223.391C221.063 223.391 219.03 225.875 225.805 232.649C225.805 232.649 234.837 248.455 228.514 263.81L225.805 325.229C225.805 325.229 233.705 368.526 227.669 382.305L219.691 382.804L206.191 325.729L199.611 264.262L196.45 324.778C196.45 324.778 208.544 366.315 200.907 382.804L192.266 382.305L177.482 324.778C177.482 324.778 171.16 258.391 172.063 245.746C172.966 233.1 179.289 218.197 179.289 218.197Z" fill="#2E75AD" fill-opacity="0.09"/>
<path d="M251.328 121.145C248.396 121.904 246.634 124.897 247.393 127.83C247.741 129.174 248.561 130.267 249.626 130.989L249.626 130.996L249.21 141.073L256.921 144.641L257.536 129.135L257.483 129.137C258.151 127.946 258.382 126.507 258.013 125.08C257.253 122.148 254.261 120.386 251.328 121.145Z" fill="#6B3C13"/>
<path d="M208.232 157.107C206.612 155.502 205.672 153.325 205.637 150.957C205.59 147.782 207.181 144.9 209.894 143.248C213.018 141.345 216.924 141.537 219.846 143.737L244.06 161.968L248.374 135.705L257.637 138.687L255.427 172.886C255.272 175.278 253.92 177.385 251.81 178.523C249.7 179.66 247.197 179.632 245.113 178.447L210.121 158.538C209.418 158.138 208.785 157.656 208.232 157.107Z" fill="#133149"/>
<path d="M171.31 106.455C172.858 109.058 172.002 112.424 169.398 113.972C168.205 114.681 166.853 114.88 165.588 114.643L165.583 114.649L158.784 122.097L150.796 119.202L161.276 107.758L161.313 107.797C161.676 106.48 162.526 105.296 163.792 104.542C166.396 102.995 169.762 103.851 171.31 106.455Z" fill="#6B3C13"/>
<path d="M174.246 162.021L135.38 151.522C133.066 150.897 131.268 149.155 130.57 146.861C129.873 144.568 130.397 142.12 131.971 140.312L154.479 114.47L163.157 118.874L147.73 140.562L177.761 144.663C181.384 145.158 184.294 147.772 185.173 151.322C185.936 154.405 185.037 157.573 182.768 159.795C181.076 161.451 178.876 162.335 176.595 162.335C175.816 162.335 175.027 162.232 174.246 162.021Z" fill="#133149"/>
<path d="M229.658 227.232L175.308 229.725C173.815 227.459 174.219 224.05 176.31 219.782C184.203 203.666 178.208 173.179 174.176 157.304C173.044 152.85 176.082 148.422 180.654 147.965L185.779 147.452L190.516 132.992H207.106L213.988 140.855L225.669 147.951C223.543 169.85 214.484 200.774 227.389 216.282C230.212 219.674 231.012 223.342 229.658 227.232Z" fill="#133149"/>
<path d="M196.7 133.326C205.625 133.326 212.86 126.092 212.86 117.167C212.86 108.243 205.625 101.008 196.7 101.008C187.776 101.008 180.541 108.243 180.541 117.167C180.541 126.092 187.776 133.326 196.7 133.326Z" fill="#6B3C13"/>
<path d="M214.986 106.824C217.234 98.6268 192.731 91.5978 187.969 98.1988C187.307 97.2603 184.86 96.6903 183.737 96.9782C182.614 97.266 181.67 97.9857 180.749 98.6824C179.482 99.6555 178.17 100.663 177.392 102.062C176.609 103.455 176.488 105.355 177.542 106.565C178.377 107.526 179.844 112.636 181.099 112.889C181.974 113.067 182.711 113.211 183.344 113.315C183.909 112.492 185.348 111.457 185.244 110.461C186.096 111.026 185.785 112.018 185.613 113.033C185.041 116.411 172.152 142.564 179.534 134.857C180.265 135.289 181.169 135.692 182.211 136.061C183.979 133.395 185.43 130.251 186.386 126.964L186.392 127.024C186.721 129.881 188.809 132.226 191.572 133.026C202.653 136.236 211.616 131.526 214.699 123.031C213.571 120.739 213.079 120.988 213.18 120.92C214.589 119.971 216.525 120.592 217.131 122.179C217.31 122.647 217.472 123.047 217.613 123.348C219.219 117.602 221.129 118.431 214.986 106.824Z" fill="#262626"/>
<path d="M214.986 106.824C217.234 98.6268 192.731 91.5978 187.969 98.1988C187.307 97.2603 184.86 96.6903 183.737 96.9782C182.614 97.266 181.67 97.9857 180.749 98.6824C179.482 99.6555 178.17 100.663 177.392 102.062C176.609 103.455 176.488 105.355 177.542 106.565C178.377 107.526 179.844 112.636 181.099 112.889C181.974 113.067 182.711 113.211 183.344 113.315C183.909 112.492 185.348 111.457 185.244 110.461C186.096 111.026 185.785 112.018 185.613 113.033C185.041 116.411 172.152 142.564 179.534 134.857C180.265 135.289 181.169 135.692 182.211 136.061C183.979 133.395 185.43 130.251 186.386 126.964L186.392 127.024C186.721 129.881 188.809 132.226 191.572 133.026C202.653 136.236 211.616 131.526 214.699 123.031C213.571 120.739 213.079 120.988 213.18 120.92C214.589 119.971 216.525 120.592 217.131 122.179C217.31 122.647 217.472 123.047 217.613 123.348C219.219 117.602 221.129 118.431 214.986 106.824Z" fill="#2E75AD" fill-opacity="0.09"/>
<path d="M207.341 100.877L206.209 95.0899C206.114 94.6035 206.024 94.0757 206.243 93.6312C206.525 93.0601 207.249 92.8234 207.88 92.9145C208.51 93.0055 208.982 93.5812 209.609 93.6921C211.789 94.0776 214.671 91.9239 215.452 97.3722C215.778 99.6439 219.403 99.8838 220.613 101.833C221.824 103.783 221.973 106.597 220.321 108.19C219.001 109.462 216.882 109.609 215.168 108.959C213.455 108.309 212.079 106.996 210.878 105.612C209.677 104.228 208.589 102.73 207.203 101.531" fill="#262626"/>
<path d="M207.341 100.877L206.209 95.0899C206.114 94.6035 206.024 94.0757 206.243 93.6312C206.525 93.0601 207.249 92.8234 207.88 92.9145C208.51 93.0055 208.982 93.5812 209.609 93.6921C211.789 94.0776 214.671 91.9239 215.452 97.3722C215.778 99.6439 219.403 99.8838 220.613 101.833C221.824 103.783 221.973 106.597 220.321 108.19C219.001 109.462 216.882 109.609 215.168 108.959C213.455 108.309 212.079 106.996 210.878 105.612C209.677 104.228 208.589 102.73 207.203 101.531" fill="#2E75AD" fill-opacity="0.09"/>
<path d="M215.849 109.678C211.427 109.061 208.413 107.452 206.891 104.899C204.898 101.556 206.233 97.8758 206.291 97.7207L207.225 98.0681C207.213 98.102 206.002 101.471 207.753 104.397C209.114 106.673 211.885 108.118 215.987 108.691L215.849 109.678Z" fill="#FF902E"/>
<path d="M262.951 12.4943C259.103 9.24699 254.394 7.18823 249.396 6.56856C244.399 5.94888 239.33 6.795 234.805 9.00396C230.28 11.2129 226.494 14.6895 223.909 19.0106C221.324 23.3317 220.051 28.3111 220.244 33.3427C220.437 38.3744 222.088 43.2415 224.997 47.3517C227.906 51.4619 231.947 54.638 236.628 56.4935C241.309 58.3491 246.428 58.8041 251.363 57.8031C256.298 56.8021 260.836 54.3884 264.424 50.8556L296.286 77.7403C296.77 78.1502 297.398 78.3507 298.031 78.2977C298.663 78.2447 299.249 77.9426 299.659 77.4578C300.069 76.973 300.269 76.3453 300.216 75.7127C300.163 75.08 299.861 74.4944 299.376 74.0845L299.373 74.0816L267.511 47.1968C271.212 41.8846 272.797 35.3816 271.953 28.9623C271.11 22.5429 267.899 16.67 262.951 12.4943ZM260.897 44.608C258.415 47.5496 255.116 49.6892 251.418 50.7561C247.72 51.823 243.788 51.7693 240.121 50.6018C236.453 49.4343 233.214 47.2055 230.813 44.1971C228.412 41.1887 226.957 37.536 226.632 33.7007C226.308 29.8655 227.127 26.02 228.988 22.6506C230.848 19.2812 233.666 16.5392 237.085 14.7713C240.504 13.0035 244.371 12.2891 248.196 12.7187C252.021 13.1482 255.632 14.7023 258.574 17.1845C260.527 18.8326 262.137 20.8493 263.31 23.1194C264.484 25.3895 265.199 27.8686 265.415 30.4151C265.631 32.9616 265.343 35.5256 264.568 37.9609C263.793 40.3961 262.545 42.6548 260.897 44.608Z" fill="#FF902E"/>
<path d="M-14 399.077C-14 399.589 -13.5887 400 -13.0765 400H413.953C414.465 400 414.876 399.589 414.876 399.077C414.876 398.565 414.465 398.153 413.953 398.153H-13.0765C-13.5887 398.153 -14 398.565 -14 399.077Z" fill="#D8D8D8"/>
<path d="M-14 399.077C-14 399.589 -13.5887 400 -13.0765 400H413.953C414.465 400 414.876 399.589 414.876 399.077C414.876 398.565 414.465 398.153 413.953 398.153H-13.0765C-13.5887 398.153 -14 398.565 -14 399.077Z" fill="#2E75AD" fill-opacity="0.01"/>
</g>
<defs>
<clipPath id="clip0_1922_5574">
<rect width="400" height="400" fill="white"/>
</clipPath>
</defs>
</svg>
